<?xml version="1.0" encoding="UTF-8" standalone="no"?>
<svg
   xmlns:dc="http://purl.org/dc/elements/1.1/"
   xmlns:cc="http://creativecommons.org/ns#"
   xmlns:rdf="http://www.w3.org/1999/02/22-rdf-syntax-ns#"
   xmlns:svg="http://www.w3.org/2000/svg"
   xmlns="http://www.w3.org/2000/svg"
   xml:space="preserve"
   enable-background="new 0 0 26.873 31.666"
   viewBox="0 0 26.873 31.666"
   height="31.666px"
   width="26.873px"
   y="0px"
   x="0px"
   id="Layer_1"
   version="1.1"><metadata
     id="metadata13"><rdf:RDF><cc:Work
         rdf:about=""><dc:format>image/svg+xml</dc:format><dc:type
           rdf:resource="http://purl.org/dc/dcmitype/StillImage" /></cc:Work></rdf:RDF></metadata><defs
     id="defs11" /><path
     id="path3"
     d="M0,7.952c0.041-0.178,0.086-0.355,0.124-0.533c0.232-1.11,0.779-2.01,1.749-2.627  C4.247,3.28,6.622,1.768,8.999,0.26c0.582-0.369,1.135-0.342,1.595,0.064c0.254,0.224,0.378,0.52,0.383,0.849  c0.009,0.639,0.014,1.279-0.016,1.916c-0.025,0.541-0.443,0.936-0.942,1.052C9.539,4.252,9.031,4.02,8.752,3.572  C8.719,3.52,8.686,3.469,8.643,3.402C8.574,3.435,8.508,3.457,8.45,3.493C6.724,4.584,5.007,5.689,3.27,6.762  C2.563,7.199,2.348,8.087,2.529,8.7c0.107,0.361,0.307,0.53,0.686,0.563c0.682,0.058,1.307-0.156,1.906-0.439  c0.447-0.211,0.888-0.442,1.301-0.711c2.87-1.867,5.729-3.75,8.599-5.617C15.246,2.35,15.52,2.23,15.783,2.2  c0.991-0.112,1.533,0.93,1.206,1.751c-0.126,0.315-0.365,0.518-0.634,0.697c-1.743,1.16-3.49,2.314-5.226,3.484  c-0.418,0.281-0.827,0.586-1.194,0.929c-0.781,0.731-1.134,1.688-1.267,2.721c-0.087,0.673-0.125,1.356-0.127,2.035  c-0.012,3.735-0.007,7.471-0.004,11.206c0.001,0.422-0.085,0.811-0.421,1.084c-0.171,0.139-0.383,0.243-0.593,0.312  c-1.049,0.34-2.13,0.365-3.215,0.257c-0.898-0.09-1.767-0.306-2.566-0.745c-0.809-0.443-1.424-1.053-1.64-1.986  c-0.04-0.17-0.068-0.342-0.102-0.513V7.952z"
     fill="#FFFFFF" /><path
     id="path5"
     d="M26.807,7.444c-0.154-0.778-1.032-1.199-1.731-0.824c-0.135,0.073-0.261,0.165-0.384,0.258  c-2.477,1.872-4.947,3.75-7.428,5.616c-0.914,0.687-1.914,1.213-3.052,1.43c-0.428,0.081-0.859,0.108-1.285-0.021  c-0.433-0.13-0.634-0.403-0.691-0.846c-0.074-0.567,0.134-1.008,0.546-1.372c0.154-0.136,0.314-0.268,0.484-0.385  c1.626-1.129,3.255-2.254,4.884-3.379c0.083-0.058,0.171-0.109,0.267-0.171c0.182,0.302,0.391,0.543,0.729,0.65  c0.709,0.225,1.483-0.188,1.556-0.924c0.07-0.704,0.057-1.423,0.005-2.13c-0.06-0.819-1.021-1.362-1.881-0.822  c-0.104,0.066-0.205,0.139-0.308,0.209c-2.215,1.527-4.433,3.051-6.646,4.584c-0.737,0.511-1.375,1.119-1.753,1.956  c-0.215,0.477-0.329,0.978-0.329,1.499c-0.004,5.054-0.005,10.109-0.002,15.164c0.001,1.275,0.689,2.146,1.718,2.787  c0.856,0.532,1.803,0.797,2.804,0.883c0.142,0.013,0.284,0.039,0.426,0.06h0.309c0.396-0.056,0.793-0.103,1.187-0.172  c0.627-0.11,1.213-0.345,1.724-0.72c1.819-1.332,3.631-2.676,5.438-4.025c0.851-0.635,1.678-1.301,2.527-1.936  c0.444-0.332,0.863-0.666,0.952-1.258V7.642C26.85,7.576,26.821,7.512,26.807,7.444 M24.588,12.509  c0.008-0.009,0.018-0.018,0.026-0.025c0.074-0.058,0.147-0.028,0.171,0.078c0.025,0.12-0.02,0.29-0.104,0.38l-0.83,0.9  c-0.01,0.011-0.018,0.019-0.028,0.026c-0.073,0.058-0.147,0.028-0.17-0.078c-0.026-0.12,0.021-0.29,0.103-0.38L24.588,12.509z   M22.869,12.573l0.507-1.436c0.027-0.076,0.067-0.134,0.109-0.167c0.038-0.03,0.078-0.039,0.111-0.019  c0.072,0.041,0.088,0.191,0.037,0.335l-0.508,1.437c-0.027,0.075-0.066,0.133-0.107,0.166c-0.038,0.03-0.079,0.039-0.113,0.019  C22.834,12.867,22.818,12.717,22.869,12.573 M23.764,15.499c0.054,0.628-0.01,1.304-0.164,1.959l0.418,0.217l-0.122,1.778  l-0.869-0.41c-0.312,0.617-0.704,1.14-1.144,1.485c-1.195,0.938-2.289,0.205-2.444-1.637c-0.155-1.84,0.688-4.091,1.883-5.03  C22.516,12.925,23.61,13.658,23.764,15.499 M21.124,11.507c0.086-0.068,0.165-0.015,0.178,0.119l0.111,1.331  c0.012,0.134-0.05,0.297-0.137,0.364c-0.086,0.068-0.166,0.016-0.178-0.118l-0.111-1.331C20.975,11.738,21.037,11.575,21.124,11.507   M19.059,14.464c0.025-0.067,0.062-0.118,0.101-0.148c0.042-0.033,0.086-0.04,0.121-0.013l0.672,0.511  c0.067,0.051,0.076,0.207,0.021,0.348c-0.026,0.067-0.063,0.118-0.102,0.148c-0.042,0.033-0.086,0.04-0.121,0.014l-0.671-0.512  C19.012,14.761,19.002,14.605,19.059,14.464 M18.072,17.784c0.003-0.128,0.063-0.262,0.138-0.32  c0.008-0.007,0.018-0.014,0.027-0.018l0.87-0.436c0.087-0.043,0.155,0.039,0.151,0.182c-0.004,0.127-0.063,0.261-0.139,0.32  c-0.009,0.006-0.018,0.012-0.027,0.018l-0.871,0.434C18.135,18.007,18.068,17.927,18.072,17.784 M20.499,27.547l-0.494-0.204  c-0.041,0.043-0.082,0.079-0.125,0.112c-0.134,0.104-0.261,0.166-0.377,0.181c-0.119,0.014-0.224-0.015-0.316-0.089  c-0.092-0.073-0.168-0.19-0.229-0.351s-0.103-0.363-0.122-0.608l-0.012-0.13c-0.021-0.246-0.018-0.484,0.012-0.715  c0.026-0.23,0.075-0.445,0.145-0.645c0.068-0.199,0.154-0.381,0.261-0.541c0.104-0.162,0.226-0.295,0.358-0.4  c0.134-0.104,0.259-0.163,0.377-0.178c0.117-0.014,0.223,0.017,0.314,0.09c0.092,0.074,0.17,0.191,0.231,0.351  c0.062,0.16,0.103,0.362,0.122,0.608l0.012,0.13c0.025,0.297,0.016,0.581-0.029,0.853c-0.046,0.271-0.119,0.518-0.221,0.741  l0.371,0.146L20.499,27.547z M22.637,24.588c-0.026,0.175-0.071,0.339-0.135,0.493c-0.062,0.154-0.144,0.296-0.24,0.424  c-0.096,0.129-0.205,0.242-0.328,0.34c-0.123,0.094-0.236,0.157-0.342,0.187c-0.105,0.03-0.197,0.024-0.278-0.019  c-0.08-0.041-0.146-0.117-0.198-0.229c-0.053-0.113-0.086-0.265-0.102-0.452l-0.178-2.098l0.506-0.396l0.176,2.098  c0.017,0.199,0.057,0.32,0.119,0.367c0.062,0.043,0.144,0.026,0.246-0.054c0.104-0.082,0.18-0.187,0.226-0.317  s0.06-0.295,0.044-0.492l-0.178-2.098l0.502-0.395l0.178,2.098C22.67,24.231,22.665,24.413,22.637,24.588 M23.17,24.827  l-0.271-3.211l0.501-0.393l0.271,3.211L23.17,24.827z M24.03,24.151l-0.034-0.407l0.808-2.985l-1,0.784l-0.049-0.599l1.617-1.27  l0.034,0.397l-0.799,2.993l0.995-0.782l0.051,0.596L24.03,24.151z"
     fill="#FFFFFF" /><path
     id="path7"
     d="M20.308,18.211c0.093,1.101,0.747,1.538,1.462,0.979c0.715-0.562,1.219-1.908,1.126-3.01  c-0.093-1.101-0.747-1.54-1.462-0.979S20.215,17.11,20.308,18.211"
     fill="#FFFFFF" /></svg>