<?xml version="1.0" encoding="UTF-8" standalone="no"?>
<svg
   xmlns:dc="http://purl.org/dc/elements/1.1/"
   xmlns:cc="http://creativecommons.org/ns#"
   xmlns:rdf="http://www.w3.org/1999/02/22-rdf-syntax-ns#"
   xmlns:svg="http://www.w3.org/2000/svg"
   xmlns="http://www.w3.org/2000/svg"
   xml:space="preserve"
   enable-background="new 0 0 24.999 24.298"
   viewBox="0 0 24.999 24.298"
   height="24.298px"
   width="24.999px"
   y="0px"
   x="0px"
   id="Layer_1"
   version="1.1"><metadata
     id="metadata41"><rdf:RDF><cc:Work
         rdf:about=""><dc:format>image/svg+xml</dc:format><dc:type
           rdf:resource="http://purl.org/dc/dcmitype/StillImage" /></cc:Work></rdf:RDF></metadata><defs
     id="defs39" /><path
     id="path3"
     d="M3.125,3.055c0,0.42,0.01,0.818-0.002,1.215c-0.034,1.087,0.74,2.305,2.153,2.506  c1.39,0.198,2.534-0.738,2.79-1.943c0.044-0.21,0.051-0.43,0.056-0.645c0.009-0.371,0.002-0.742,0.002-1.127h3.794  c-0.429,0.995-0.674,2.024-0.673,3.11c0.001,1.083,0.239,2.109,0.682,3.126H7.203H2.512v12.481h19.987v-0.273  c0-2.838,0.002-5.676-0.005-8.514c-0.001-0.231,0.06-0.366,0.267-0.494c0.838-0.516,1.533-1.189,2.107-1.986  c0.025-0.035,0.053-0.069,0.079-0.102c0.004-0.005,0.015-0.005,0.042-0.012c0.004,0.076,0.01,0.149,0.01,0.221  c0,3.706,0.002,7.413,0,11.118c0,1.43-1.109,2.561-2.527,2.561c-6.648,0.003-13.296,0.002-19.944,0  c-1.179-0.001-2.164-0.775-2.446-1.917c-0.049-0.2-0.078-0.411-0.078-0.617C0,16.39,0,11.018,0,5.645  C0,4.474,0.684,3.509,1.75,3.172C2.186,3.033,2.636,3.036,3.125,3.055"
     fill="#FFFFFF" /><path
     id="path5"
     d="M4.375,3.048c0-0.408-0.005-0.816,0.001-1.223c0.01-0.634,0.402-1.11,1.011-1.241  c0.629-0.136,1.283,0.268,1.437,0.893c0.028,0.117,0.048,0.239,0.049,0.359c0.004,0.807,0.006,1.614,0.001,2.42  C6.869,4.903,6.472,5.383,5.85,5.513C5.231,5.641,4.585,5.243,4.431,4.63C4.395,4.488,4.379,4.339,4.377,4.193  C4.37,3.812,4.375,3.43,4.375,3.048"
     fill="#FFFFFF" /><path
     id="path7"
     d="M21.249,19.294c0,0.191,0.004,0.382,0,0.572c-0.01,0.41-0.259,0.67-0.662,0.679  c-0.39,0.008-0.781,0.008-1.17,0c-0.404-0.007-0.66-0.267-0.666-0.673c-0.006-0.383-0.006-0.764,0-1.146  c0.006-0.42,0.262-0.674,0.687-0.679c0.373-0.006,0.746-0.006,1.118-0.001c0.435,0.005,0.687,0.262,0.693,0.7  C21.251,18.93,21.249,19.112,21.249,19.294"
     fill="#FFFFFF" /><path
     id="path9"
     d="M14.999,19.265c0-0.19-0.006-0.381,0.002-0.571c0.014-0.377,0.266-0.636,0.642-0.644  c0.408-0.011,0.815-0.012,1.224,0c0.361,0.01,0.619,0.265,0.631,0.627c0.012,0.408,0.011,0.815,0,1.223  c-0.01,0.377-0.266,0.636-0.642,0.645c-0.407,0.012-0.815,0.012-1.223,0c-0.373-0.012-0.621-0.275-0.632-0.654  C14.995,19.681,14.999,19.474,14.999,19.265"
     fill="#FFFFFF" /><path
     id="path11"
     d="M12.512,18.047c0.182,0,0.364-0.003,0.546,0.001c0.425,0.007,0.684,0.257,0.69,0.676  c0.007,0.383,0.007,0.764,0,1.145c-0.007,0.42-0.264,0.672-0.689,0.678c-0.373,0.005-0.746,0.005-1.118,0  c-0.436-0.006-0.687-0.262-0.691-0.703c-0.003-0.364-0.003-0.729,0-1.092c0.005-0.451,0.258-0.699,0.716-0.704  C12.148,18.045,12.33,18.047,12.512,18.047"
     fill="#FFFFFF" /><path
     id="path13"
     d="M8.752,18.047c0.199,0,0.399-0.007,0.598,0.001c0.378,0.014,0.637,0.264,0.647,0.641  c0.011,0.406,0.012,0.814,0,1.221c-0.011,0.375-0.272,0.627-0.652,0.636c-0.398,0.009-0.797,0.009-1.196,0  c-0.389-0.011-0.641-0.271-0.648-0.665c-0.007-0.391-0.007-0.781,0-1.172c0.008-0.402,0.269-0.652,0.679-0.661  C8.37,18.044,8.561,18.047,8.752,18.047"
     fill="#FFFFFF" /><path
     id="path15"
     d="M4.992,18.047c0.199,0,0.399-0.005,0.598,0.001c0.392,0.012,0.65,0.264,0.658,0.655  c0.009,0.399,0.011,0.798,0,1.196c-0.011,0.379-0.265,0.635-0.642,0.645c-0.408,0.012-0.816,0.014-1.223,0  c-0.373-0.012-0.624-0.275-0.631-0.654c-0.008-0.398-0.009-0.798,0-1.197c0.009-0.375,0.266-0.629,0.642-0.645  C4.593,18.041,4.792,18.047,4.992,18.047"
     fill="#FFFFFF" /><path
     id="path17"
     d="M19.991,14.297c0.199,0,0.398-0.005,0.598,0.001c0.393,0.012,0.65,0.264,0.658,0.655  c0.009,0.399,0.011,0.798,0,1.196c-0.01,0.377-0.266,0.635-0.643,0.645c-0.406,0.012-0.814,0.012-1.222,0  c-0.374-0.012-0.624-0.275-0.632-0.654c-0.008-0.398-0.008-0.797,0.001-1.197c0.009-0.377,0.265-0.629,0.642-0.645  C19.592,14.291,19.792,14.297,19.991,14.297"
     fill="#FFFFFF" /><path
     id="path19"
     d="M16.263,14.297c0.182,0,0.364-0.003,0.546,0.001c0.425,0.007,0.683,0.257,0.688,0.677  c0.007,0.382,0.008,0.763,0,1.144c-0.006,0.42-0.264,0.672-0.689,0.678c-0.373,0.005-0.746,0.005-1.117,0  c-0.436-0.006-0.687-0.264-0.69-0.704c-0.003-0.364-0.003-0.728,0-1.092c0.005-0.44,0.256-0.695,0.69-0.702  C15.882,14.294,16.071,14.297,16.263,14.297"
     fill="#FFFFFF" /><path
     id="path21"
     d="M12.498,14.297c0.191,0,0.382-0.003,0.572,0.001c0.409,0.009,0.67,0.258,0.678,0.662  c0.008,0.39,0.008,0.779,0,1.17c-0.008,0.404-0.266,0.658-0.674,0.666c-0.382,0.006-0.763,0.006-1.145,0  c-0.42-0.008-0.673-0.264-0.678-0.688c-0.005-0.373-0.005-0.746,0-1.119c0.004-0.436,0.261-0.687,0.701-0.692  C12.134,14.295,12.316,14.297,12.498,14.297"
     fill="#FFFFFF" /><path
     id="path23"
     d="M8.765,14.297c0.191,0,0.382-0.004,0.572,0.001c0.393,0.012,0.652,0.262,0.661,0.652  c0.01,0.398,0.01,0.798,0,1.197c-0.01,0.377-0.263,0.635-0.639,0.646c-0.407,0.012-0.815,0.012-1.222,0  c-0.374-0.012-0.627-0.273-0.635-0.65c-0.008-0.399-0.009-0.799,0-1.197c0.009-0.389,0.271-0.639,0.665-0.648  C8.366,14.293,8.565,14.297,8.765,14.297"
     fill="#FFFFFF" /><path
     id="path25"
     d="M5.013,14.296c0.191,0,0.382-0.004,0.572,0.002c0.392,0.01,0.654,0.262,0.663,0.65  c0.009,0.398,0.009,0.799,0,1.196c-0.01,0.39-0.269,0.644-0.663,0.651c-0.39,0.006-0.781,0.006-1.171,0  c-0.403-0.008-0.657-0.27-0.663-0.678c-0.006-0.381-0.006-0.763,0-1.145c0.007-0.42,0.265-0.67,0.69-0.676  C4.631,14.294,4.822,14.296,5.013,14.296"
     fill="#FFFFFF" /><path
     id="path27"
     d="M12.513,10.547c0.191,0,0.382-0.004,0.572,0.001c0.393,0.011,0.654,0.261,0.663,0.651  c0.01,0.398,0.01,0.797,0,1.196c-0.01,0.39-0.269,0.642-0.664,0.65c-0.389,0.009-0.78,0.009-1.17,0.001  c-0.403-0.009-0.657-0.27-0.663-0.677c-0.005-0.381-0.006-0.763,0-1.144c0.007-0.419,0.265-0.67,0.69-0.677  C12.132,10.544,12.322,10.547,12.513,10.547"
     fill="#FFFFFF" /><path
     id="path29"
     d="M8.75,13.047c-0.191,0-0.381,0.004-0.572-0.001C7.77,13.037,7.509,12.785,7.5,12.383  c-0.007-0.39-0.008-0.781,0-1.17c0.009-0.405,0.268-0.658,0.677-0.665c0.381-0.006,0.762-0.006,1.144,0  c0.408,0.006,0.668,0.259,0.676,0.664c0.008,0.39,0.008,0.78,0,1.17c-0.008,0.404-0.268,0.654-0.676,0.664  C9.131,13.051,8.94,13.047,8.75,13.047"
     fill="#FFFFFF" /><path
     id="path31"
     d="M4.999,13.047c-0.191,0-0.382,0.004-0.572-0.001c-0.408-0.01-0.668-0.262-0.676-0.664  c-0.007-0.39-0.007-0.781,0.001-1.171c0.007-0.404,0.266-0.656,0.676-0.663c0.381-0.006,0.763-0.006,1.144,0  c0.409,0.007,0.667,0.258,0.676,0.664c0.008,0.39,0.008,0.78,0,1.17c-0.008,0.404-0.268,0.655-0.677,0.664  C5.381,13.051,5.19,13.047,4.999,13.047"
     fill="#FFFFFF" /><path
     id="path33"
     d="M23.711,10.549c-0.095-0.352-0.2-0.702-0.28-1.057c-0.031-0.139-0.133-0.276-0.031-0.435l-0.023,0.024  c0.587-0.918,0.928-2.008,0.928-3.179C24.304,2.643,21.662,0,18.401,0c-3.258,0-5.9,2.643-5.9,5.902c0,3.26,2.643,5.902,5.9,5.902  c1.233,0,2.377-0.378,3.324-1.024l-0.062,0.064c0.066-0.043,0.173-0.068,0.246-0.049c0.541,0.14,1.078,0.294,1.617,0.443  c0.113,0.031,0.229,0.055,0.367,0.088c-0.002-0.069,0.002-0.101-0.006-0.13C23.83,10.98,23.769,10.765,23.711,10.549 M20.584,8.948  c-0.046-0.012-0.112,0.004-0.153,0.03c-0.229,0.145-0.465,0.279-0.724,0.366c-0.371,0.125-0.746,0.232-1.142,0.223  c-0.285-0.006-0.574-0.005-0.854-0.051c-0.237-0.04-0.467-0.134-0.694-0.219c-0.156-0.057-0.305-0.133-0.449-0.213  c-0.455-0.252-0.83-0.597-1.137-1.015c-0.195-0.265-0.349-0.553-0.461-0.861c-0.17-0.466-0.257-0.945-0.234-1.446  c0.021-0.503,0.135-0.981,0.349-1.434c0.237-0.504,0.576-0.93,1.011-1.28c0.395-0.317,0.836-0.543,1.322-0.68  c0.396-0.113,0.801-0.153,1.21-0.121c0.249,0.02,0.5,0.053,0.742,0.114c0.378,0.094,0.731,0.256,1.056,0.474  c0.454,0.304,0.831,0.685,1.115,1.152c0.193,0.319,0.331,0.661,0.429,1.024c0.12,0.446,0.119,0.897,0.083,1.349  c-0.014,0.179-0.07,0.355-0.113,0.531c-0.086,0.349-0.233,0.671-0.426,0.973c-0.062,0.099,0.002,0.185,0.02,0.271  c0.051,0.222,0.115,0.44,0.176,0.659c0.036,0.135,0.074,0.27,0.109,0.404c0.006,0.018,0.002,0.038,0.004,0.081  c-0.086-0.02-0.158-0.035-0.229-0.055C21.256,9.132,20.921,9.035,20.584,8.948"
     fill="#FFFFFF" /><path
     id="path35"
     d="M18.165,7.226c0.468,0.003,0.828-0.354,0.82-0.824c-0.002-0.106,0.028-0.177,0.103-0.25  c0.511-0.505,1.017-1.014,1.524-1.522c0.031-0.032,0.065-0.062,0.096-0.097c0.211-0.249,0.096-0.597-0.223-0.673  c-0.177-0.043-0.305,0.036-0.422,0.154c-0.503,0.504-1.008,1.007-1.51,1.512c-0.07,0.071-0.13,0.122-0.247,0.083  c-0.086-0.028-0.196-0.024-0.284,0.003c-0.097,0.028-0.146-0.008-0.203-0.067c-0.179-0.182-0.359-0.361-0.539-0.541  c-0.08-0.079-0.158-0.163-0.244-0.236c-0.127-0.108-0.275-0.124-0.428-0.059c-0.156,0.065-0.234,0.19-0.244,0.356  c-0.008,0.131,0.047,0.24,0.141,0.332c0.246,0.242,0.484,0.49,0.734,0.73c0.086,0.084,0.127,0.166,0.125,0.293  C17.355,6.871,17.715,7.223,18.165,7.226"
     fill="#FFFFFF" /></svg>